inDegrees=yes
name=teste_pendulo.mot
DataType=double
version=3
OpenSimVersion=4.4-2022-07-23-0e9fedc
endheader
time	q1	q2
3.717644214630127	26.89314217403296	-61.82967650172692
3.72464108467102	26.70251737609345	-61.63905171295789
3.731733083724975	26.67193415050737	-61.66963492195779
3.737643003463745	26.50747249790341	-61.52069635172376
3.741640090942383	26.50747445629085	-61.70701994201757
3.747642040252685	26.28730912259622	-61.48685773486306
3.755640029907226	26.06547273874163	-61.26502135042912
3.761638879776001	26.06547449997199	-61.42850782029324
3.767691135406494	25.84415746961399	-61.20719352920658
3.771639108657837	25.84415908008374	-61.3569358873381
3.775641918182373	25.59093414721969	-61.10371344977904
3.780648946762085	25.5909355101461	-61.23133976059899
3.784641027450561	25.33651685168563	-60.97692322106689
3.789636850357055	25.03996868890168	-60.68037504381269
3.796634912490844	24.81278585436794	-60.4531922331688
3.801635980606079	24.77468640226278	-60.49129166645939
3.807698965072632	24.53973917775349	-60.27569985160417
3.814669132232666	24.26690780286909	-60.00286855237037
3.822642087936401	24.2669093035706	-60.1433999088546
3.828639030456543	23.91307686326668	-59.78956976918975
3.835636138916015	23.89358699436735	-59.80905961470111
3.839636087417602	23.3989216557641	-59.32430443887312
3.843632936477661	23.35929318481472	-59.38158927806621
3.8526611328125	23.39892158324909	-59.47409860964853
3.858642101287842	23.3731599357112	-59.49986025505662
3.865665197372436	23.37726781585526	-59.53231167507053
3.870638847351074	22.75078933437153	-58.90959354965025
3.876632928848266	22.73914464905176	-58.92123822608728
3.880636930465698	22.01616695384114	-58.20419118590256
3.884635925292968	21.98485822276411	-58.23549992531345
3.889631032943725	21.36819380828777	-57.63480183190855
3.898638963699341	20.90321452676837	-57.16982269329162
3.906671047210693	20.89119213055586	-57.18184506838527
3.914709091186523	20.35084303170651	-56.6476363506234
3.920639038085937	20.35084303170651	-56.6476363506234
3.927640914916992	20.09218838894271	-56.39278558181361
3.932639122009277	20.09218838894271	-56.39278558181361
3.938639879226684	19.89846582473444	-56.18805700708327
3.943648099899292	19.90919925129469	-56.17732357281464
3.949647903442383	19.92149509190684	-56.16047111602733
3.954683065414428	19.61513807213012	-55.84429429597942
3.958624124526977	19.61513807213012	-55.84429429597942
3.963644981384277	19.12273550884927	-55.33012586331365
3.969619989395141	19.12273401504716	-55.19626235503259
3.977624893188476	19.16611684363065	-55.15288010842392
3.984621047973633	18.54771672510314	-54.51225168519974
3.989661931991577	18.54771427953468	-54.29113050928757
3.99467396736145	17.69247459372986	-53.43588649053723
3.99863600730896	17.73289033352002	-53.37733555326488
4.003629922866821	17.06461387872998	-52.68915962621996
4.007632970809936	17.06461009852944	-52.34697309961266
4.011626005172729	16.4362178653801	-51.71857467510659
4.015627145767212	16.43621531221569	-51.49403122437374
4.020634889602661	16.43621371164891	-51.12589340381543
4.024636030197143	15.85994259542796	-50.54961565013958
4.03165078163147	15.85994042105834	-50.36188973516547
4.038651943206787	15.34376273712344	-49.84570854285935
4.042634010314941	15.34375980029558	-49.59132745108213
4.047643899917602	14.61405899170802	-48.86162180583585
4.054636001586914	14.61405522942157	-48.52543070558422
4.058632135391235	14.29099675840435	-48.20236626041923
4.062638998031616	14.29099449479181	-48.00887129357909
4.067631006240845	13.27656371275196	-46.99443635183551
4.072633028030395	13.27655905749793	-46.5513904261484
4.076709985733032	12.66769611176413	-45.94251954456862
4.081644058227539	12.6676936699258	-45.73003971906207
4.08562707901001	11.95880259253524	-45.02114455053145
4.09063196182251	11.23581068964434	-44.29815263408742
4.097643136978149	11.23580697624266	-43.96663693577081
4.104631185531616	10.64846043730973	-43.37928435758491
4.109632015228271	10.64845723584372	-43.09955375724554
4.114614009857178	10.11302586267694	-42.56411726469375
4.124621152877808	10.1130226962731	-42.28872620833293
4.131634950637817	10.11302202560708	-41.95287699880237
4.13663387298584	9.556000148044349	-41.39584902531269
4.140635967254639	9.555996964534945	-41.11875711644797
4.147633075714111	9.192808091979927	-40.75556325747868
4.153633117675781	9.19280496542242	-40.48566034527667
4.160632133483887	8.786903355972536	-40.07975385042592
4.164633989334106	8.786899152562603	-39.71301045801343
4.170629024505615	8.307032403642735	-39.23313712178143
4.180634021759033	7.602533023344317	-38.5286375739432
4.187630891799927	7.602527018300763	-37.99039526965515
4.192659139633179	6.793337477813119	-37.18119597743048
4.198648929595947	6.79333470104682	-36.92992957084361
4.204629182815552	6.793335459937188	-36.7462403962663
4.209635972976685	5.965931719772424	-35.91883292118817
4.214648962020874	5.965928360559448	-35.61409093875802
4.218648910522461	5.105668632928222	-34.75382533420562
4.223629236221313	5.105664941882162	-34.41653914983902
4.227628231048584	3.850181334364313	-33.16104836684765
4.231626033782959	3.850178290377813	-32.82878814200954
4.252629995346069	3.507700150821104	-32.48630405782261
4.269639015197754	3.084237028697863	-32.06284089932017
4.273649930953979	3.084233600217478	-31.76648857115544
4.279629945755005	2.614131493990997	-31.29638107325225
4.285624980926514	2.042907873894762	-30.72515738981065
4.291630983352661	2.042903546317264	-30.3458484515246
4.296633958816528	0.5733828786878362	-28.87631924312736
4.302649974822998	0.5733737575358044	-27.93305772515678
4.307638168334961	-0.3219700056615383	-27.037697551369
4.313656806945801	-0.3219739518318153	-26.67588286154722
4.318660974502563	-0.79220879604814	-26.20564148260777
4.32364296913147	-0.7922106776647614	-26.04719151457442
4.341411828994751	-1.099984010482867	-25.73941525381487
4.342640876770019	-1.099987588492557	-25.43100356437781
4.34963321685791	-2.05366073378032	-24.47732430091306
4.356634855270386	-2.053663447727741	-24.22157413926923
4.362632036209106	-2.427964367347305	-23.84726854973252
4.370630025863647	-2.427981007870327	-22.33401945572401
4.375627040863037	-2.88814265660726	-21.8738331779848
4.392316102981567	-2.888147649008649	-21.4394501502006
4.399660110473633	-2.888152432756273	-20.56940375218544
4.410469055175781	-3.019655463155547	-20.43788579065685
4.413642168045044	-3.019658098076526	-20.21310042404903
4.42940092086792	-2.900272528773136	-20.33248197160449
4.432647943496704	-2.900282292756043	-19.46989622654877
4.438637256622314	-2.541677640345694	-19.8284859598742
4.442638874053955	-2.541679566570052	-19.66081035922097
4.446616172790527	-2.272547839293386	-19.92993907029601
4.450629949569702	-2.272557400571188	-19.0866287809535
4.455628156661987	-2.121101590467171	-19.23806984759861
4.460625886917114	-2.121104357045783	-19.00034311359013
4.466625213623047	-2.082872154370239	-18.94446859488448
4.471628189086914	-2.069995017764627	-18.93712465114625
4.475642919540405	-2.06850348431902	-18.58722290979145
4.479640960693359	-1.970733641256309	-18.68498643274902
4.486626863479614	-1.970737904493802	-18.31865416415868
4.490625143051147	-1.568954558458801	-18.72043096145241
4.495644092559814	-1.568962746939627	-18.00524687865193
4.504616022109985	-1.568965787075948	-17.02124869652675
4.508626937866211	-1.372889852409102	-17.21730738163711
4.514648199081421	-1.372897555254482	-16.55325287345506
4.522644996643066	-1.095035468614481	-16.83110304051174
4.528621196746826	-1.095038936662948	-16.53636010709909
4.536620140075684	-0.897142118906222	-16.7342514882547
4.543617010116577	-0.8558089656245045	-16.67369308489426
4.55262017250061	-0.8971423346764007	-16.52647403125738
4.562647104263306	-0.8971447553348018	-16.30494244777648
4.567625045776367	-0.7179071115944663	-16.48417596300682
4.572623014450073	-0.7179092836819728	-16.3021299860302
4.577620983123779	-0.690848329313012	-16.31110012811985
4.582640886306763	-0.6733085545188935	-16.15274185927051
4.586621046066284	-0.6733085545188935	-16.15274185927051
4.590620040893555	-0.6559239395980144	-15.85093067011456
4.597630023956299	-0.6762748384051795	-15.85092832474551
4.601643085479736	-0.6961387079945355	-15.22772356275267
4.608618021011353	-0.7586626057449626	-15.16518844966941
4.614615201950073	-0.7586707315322835	-14.47532066095112
4.618611097335815	-0.5153628540226662	-14.7186160250705
4.624655961990356	-0.5153685835798998	-14.23504437904312
4.628612995147705	-0.01116308678469696	-14.73924106709812
4.634630918502808	-0.01116766766369422	-14.35511485982205
4.642621040344238	-0.01117181630433252	-13.61279525362109
4.646624088287354	0.2406188850509207	-13.86457242927873
4.65262508392334	0.2406114425431592	-13.23676701513688
4.657617092132568	0.2406137780501486	-12.81050968362046
4.661652088165283	1.081415054857919	-13.65130344692366
4.670637130737305	1.081412155947905	-13.42244656766542
4.675616025924683	1.329807105369295	-13.67083719023037
4.68164587020874	1.329803630396514	-13.3840682268586
4.685617923736572	1.532225276442004	-13.58648443750398
4.689616918563843	1.532222931230765	-13.39388776925402
